<svg width="28" height="22" viewBox="0 0 28 22" fill="none" xmlns="http://www.w3.org/2000/svg">
<path d="M3.33317 21.6667C2.59984 21.6667 1.97206 21.4056 1.44984 20.8834C0.927615 20.3611 0.666504 19.7334 0.666504 19V3.00003C0.666504 2.26669 0.927615 1.63891 1.44984 1.11669C1.97206 0.59447 2.59984 0.333359 3.33317 0.333359H24.6665C25.3998 0.333359 26.0276 0.59447 26.5498 1.11669C27.0721 1.63891 27.3332 2.26669 27.3332 3.00003V19C27.3332 19.7334 27.0721 20.3611 26.5498 20.8834C26.0276 21.4056 25.3998 21.6667 24.6665 21.6667H3.33317ZM13.9998 12.3334L3.33317 5.66669V19H24.6665V5.66669L13.9998 12.3334ZM13.9998 9.66669L24.6665 3.00003H3.33317L13.9998 9.66669ZM3.33317 5.66669V3.00003V19V5.66669Z" fill="#252624"/>
</svg>
