<svg width="33" height="32" viewBox="0 0 33 32" fill="none" xmlns="http://www.w3.org/2000/svg">
<mask id="mask0_3_171" style="mask-type:alpha" maskUnits="userSpaceOnUse" x="0" y="0" width="33" height="32">
<rect x="0.5" width="32" height="32" fill="#D9D9D9"/>
</mask>
<g mask="url(#mask0_3_171)">
<path d="M8.49984 18.6667H19.1665V16H8.49984V18.6667ZM8.49984 14.6667H24.4998V12H8.49984V14.6667ZM8.49984 10.6667H24.4998V7.99999H8.49984V10.6667ZM3.1665 29.3333V5.33332C3.1665 4.59999 3.42762 3.97221 3.94984 3.44999C4.47206 2.92777 5.09984 2.66666 5.83317 2.66666H27.1665C27.8998 2.66666 28.5276 2.92777 29.0498 3.44999C29.5721 3.97221 29.8332 4.59999 29.8332 5.33332V21.3333C29.8332 22.0667 29.5721 22.6944 29.0498 23.2167C28.5276 23.7389 27.8998 24 27.1665 24H8.49984L3.1665 29.3333ZM7.3665 21.3333H27.1665V5.33332H5.83317V22.8333L7.3665 21.3333Z" fill="#1C1B1F"/>
</g>
</svg>
