<svg width="33" height="32" viewBox="0 0 33 32" fill="none" xmlns="http://www.w3.org/2000/svg">
<mask id="mask0_3_176" style="mask-type:alpha" maskUnits="userSpaceOnUse" x="0" y="0" width="33" height="32">
<rect x="0.5" width="32" height="32" fill="#D9D9D9"/>
</mask>
<g mask="url(#mask0_3_176)">
<path d="M5.8335 25.3333V22.6667H8.50016V13.3333C8.50016 11.4889 9.05572 9.84999 10.1668 8.41666C11.2779 6.98332 12.7224 6.04443 14.5002 5.59999V4.66666C14.5002 4.1111 14.6946 3.63888 15.0835 3.24999C15.4724 2.8611 15.9446 2.66666 16.5002 2.66666C17.0557 2.66666 17.5279 2.8611 17.9168 3.24999C18.3057 3.63888 18.5002 4.1111 18.5002 4.66666V5.59999C20.2779 6.04443 21.7224 6.98332 22.8335 8.41666C23.9446 9.84999 24.5002 11.4889 24.5002 13.3333V22.6667H27.1668V25.3333H5.8335ZM16.5002 29.3333C15.7668 29.3333 15.1391 29.0722 14.6168 28.55C14.0946 28.0278 13.8335 27.4 13.8335 26.6667H19.1668C19.1668 27.4 18.9057 28.0278 18.3835 28.55C17.8613 29.0722 17.2335 29.3333 16.5002 29.3333ZM11.1668 22.6667H21.8335V13.3333C21.8335 11.8667 21.3113 10.6111 20.2668 9.56666C19.2224 8.52221 17.9668 7.99999 16.5002 7.99999C15.0335 7.99999 13.7779 8.52221 12.7335 9.56666C11.6891 10.6111 11.1668 11.8667 11.1668 13.3333V22.6667Z" fill="#252624"/>
</g>
</svg>
